<svg width="33" height="33" viewBox="0 0 33 33" fill="none" xmlns="http://www.w3.org/2000/svg">
<path d="M20.22 30.5775H12.24C5.0181 30.5775 1.9325 27.4919 1.9325 20.27V12.29C1.9325 5.06808 5.0181 1.98248 12.24 1.98248H20.22C27.4419 1.98248 30.5275 5.06808 30.5275 12.29V20.27C30.5275 27.4919 27.4419 30.5775 20.22 30.5775ZM12.24 3.97748C6.10869 3.97748 3.9275 6.15868 3.9275 12.29V20.27C3.9275 26.4013 6.10869 28.5825 12.24 28.5825H20.22C26.3513 28.5825 28.5325 26.4013 28.5325 20.27V12.29C28.5325 6.15868 26.3513 3.97748 20.22 3.97748H12.24Z" fill="#9197B3"/>
<path d="M16.2308 17.716C16.0579 17.716 15.885 17.6761 15.7254 17.583L8.67642 13.5132C8.19762 13.2339 8.038 12.6221 8.3173 12.1566C8.5966 11.6778 9.20842 11.5182 9.67392 11.7975L16.2175 15.588L22.7212 11.8241C23.2 11.5448 23.8118 11.7177 24.0778 12.1832C24.3438 12.6487 24.1842 13.2738 23.7187 13.5398L16.7229 17.583C16.5766 17.6628 16.4037 17.716 16.2308 17.716Z" fill="#9197B3"/>
<path d="M16.23 24.9518C15.6847 24.9518 15.2325 24.4996 15.2325 23.9543V16.7191C15.2325 16.1738 15.6847 15.7216 16.23 15.7216C16.7753 15.7216 17.2275 16.1738 17.2275 16.7191V23.9543C17.2275 24.4996 16.7753 24.9518 16.23 24.9518Z" fill="#9197B3"/>
<path d="M16.2303 25.2573C15.4589 25.2573 14.7009 25.0844 14.0891 24.7519L9.83305 22.3845C8.55625 21.6796 7.57202 19.9905 7.57202 18.5275V14.0188C7.57202 12.5691 8.56955 10.88 9.83305 10.1618L14.0891 7.79437C15.3127 7.11607 17.148 7.11607 18.3716 7.79437L22.6276 10.1618C23.9044 10.8667 24.8887 12.5558 24.8887 14.0188V18.5275C24.8887 19.9772 23.8911 21.6663 22.6276 22.3845L18.3716 24.7519C17.7598 25.0977 17.0017 25.2573 16.2303 25.2573ZM16.2303 9.29727C15.7914 9.29727 15.3658 9.37707 15.0599 9.54997L10.804 11.9174C10.1523 12.2765 9.56702 13.2873 9.56702 14.0188V18.5275C9.56702 19.2723 10.1523 20.2698 10.804 20.6289L15.0599 22.9963C15.6717 23.3421 16.7889 23.3421 17.4007 22.9963L21.6567 20.6289C22.3084 20.2698 22.8937 19.259 22.8937 18.5275V14.0188C22.8937 13.274 22.3084 12.2765 21.6567 11.9174L17.4007 9.54997C17.0948 9.37707 16.6692 9.29727 16.2303 9.29727Z" fill="#9197B3"/>
</svg>
