<svg width="33" height="33" viewBox="0 0 33 33" fill="none" xmlns="http://www.w3.org/2000/svg">
<path d="M16.23 30.9379C15.3921 30.9379 14.6074 30.6188 14.0222 30.0203L12.0006 27.9987C11.841 27.8391 11.4154 27.6662 11.2026 27.6662H8.32979C6.60079 27.6662 5.20428 26.2696 5.20428 24.5406V21.6679C5.20428 21.4551 5.03138 21.0295 4.87178 20.8699L2.8502 18.8483C2.265 18.2631 1.9325 17.4783 1.9325 16.6404C1.9325 15.8025 2.2517 15.0178 2.8502 14.4326L4.87178 12.411C5.03138 12.2514 5.20428 11.8258 5.20428 11.613V8.74031C5.20428 7.01131 6.60079 5.61468 8.32979 5.61468H11.2026C11.4154 5.61468 11.841 5.44178 12.0006 5.28218L14.0222 3.26055C15.1926 2.09015 17.2674 2.09015 18.4378 3.26055L20.4594 5.28218C20.619 5.44178 21.0446 5.61468 21.2574 5.61468H24.1302C25.8592 5.61468 27.2557 7.01131 27.2557 8.74031V11.613C27.2557 11.8258 27.4286 12.2514 27.5882 12.411L29.6098 14.4326C30.195 15.0178 30.5275 15.8025 30.5275 16.6404C30.5275 17.4783 30.2083 18.2631 29.6098 18.8483L27.5882 20.8699C27.4286 21.0295 27.2557 21.4551 27.2557 21.6679V24.5406C27.2557 26.2696 25.8592 27.6662 24.1302 27.6662H21.2574C21.0446 27.6662 20.619 27.8391 20.4594 27.9987L18.4378 30.0203C17.8526 30.6188 17.0679 30.9379 16.23 30.9379ZM6.28158 19.46C6.81358 19.992 7.19928 20.9231 7.19928 21.6679V24.5406C7.19928 25.1657 7.70469 25.6712 8.32979 25.6712H11.2026C11.9474 25.6712 12.8784 26.0568 13.4104 26.5888L15.432 28.6104C15.8576 29.036 16.6024 29.036 17.028 28.6104L19.0496 26.5888C19.5816 26.0568 20.5126 25.6712 21.2574 25.6712H24.1302C24.7553 25.6712 25.2607 25.1657 25.2607 24.5406V21.6679C25.2607 20.9231 25.6464 19.992 26.1784 19.46L28.2 17.4384C28.4128 17.2256 28.5325 16.9463 28.5325 16.6404C28.5325 16.3345 28.4128 16.0553 28.2 15.8425L26.1784 13.8208C25.6464 13.2888 25.2607 12.3578 25.2607 11.613V8.74031C25.2607 8.11521 24.7553 7.60968 24.1302 7.60968H21.2574C20.5126 7.60968 19.5816 7.22406 19.0496 6.69206L17.028 4.67043C16.6024 4.24483 15.8576 4.24483 15.432 4.67043L13.4104 6.69206C12.8784 7.22406 11.9474 7.60968 11.2026 7.60968H8.32979C7.70469 7.60968 7.19928 8.11521 7.19928 8.74031V11.613C7.19928 12.3578 6.81358 13.2888 6.28158 13.8208L4.25999 15.8425C4.0472 16.0553 3.9275 16.3345 3.9275 16.6404C3.9275 16.9463 4.0472 17.2256 4.25999 17.4384L6.28158 19.46Z" fill="#9197B3"/>
<path d="M20.2203 21.96C19.4755 21.96 18.877 21.3615 18.877 20.63C18.877 19.8985 19.4755 19.3 20.207 19.3C20.9385 19.3 21.537 19.8985 21.537 20.63C21.537 21.3615 20.9518 21.96 20.2203 21.96Z" fill="#9197B3"/>
<path d="M12.2532 13.98C11.5084 13.98 10.9099 13.3815 10.9099 12.65C10.9099 11.9185 11.5084 11.32 12.2399 11.32C12.9714 11.32 13.5699 11.9185 13.5699 12.65C13.5699 13.3815 12.9847 13.98 12.2532 13.98Z" fill="#9197B3"/>
<path d="M12.2393 21.6268C11.9866 21.6268 11.7339 21.5337 11.5344 21.3342C11.1487 20.9485 11.1487 20.3101 11.5344 19.9244L19.5145 11.9444C19.9002 11.5587 20.5386 11.5587 20.9243 11.9444C21.31 12.3301 21.31 12.9685 20.9243 13.3542L12.9442 21.3342C12.7447 21.5337 12.492 21.6268 12.2393 21.6268Z" fill="#9197B3"/>
</svg>
