<svg width="33" height="33" viewBox="0 0 33 33" fill="none" xmlns="http://www.w3.org/2000/svg">
<path d="M12.24 29.46H20.22C26.87 29.46 29.53 26.8 29.53 20.15V12.17C29.53 5.51999 26.87 2.85999 20.22 2.85999H12.24C5.58999 2.85999 2.92999 5.51999 2.92999 12.17V20.15C2.92999 26.8 5.58999 29.46 12.24 29.46Z" stroke="#9197B3" stroke-width="1.995" stroke-linecap="round" stroke-linejoin="round"/>
<path d="M21.9224 18.3013C20.4195 19.8042 18.2649 20.2697 16.363 19.6712L12.9183 23.1026C12.6789 23.3553 12.1868 23.5149 11.8277 23.4617L10.2317 23.2489C9.69971 23.1824 9.22091 22.677 9.14111 22.1583L8.92831 20.5623C8.87511 20.2165 9.04801 19.7244 9.28741 19.4717L12.7188 16.0403C12.1336 14.1384 12.5858 11.9838 14.0887 10.4809C16.2433 8.32634 19.7545 8.32634 21.9224 10.4809C24.077 12.6222 24.077 16.1334 21.9224 18.3013Z" stroke="#9197B3" stroke-width="1.995" stroke-miterlimit="10" stroke-linecap="round" stroke-linejoin="round"/>
<path d="M14.1685 21.8524L13.038 20.7086" stroke="#9197B3" stroke-width="1.995" stroke-miterlimit="10" stroke-linecap="round" stroke-linejoin="round"/>
<path d="M18.0847 14.431H18.0966" stroke="#9197B3" stroke-width="2.66" stroke-linecap="round" stroke-linejoin="round"/>
</svg>
