<svg width="33" height="33" viewBox="0 0 33 33" fill="none" xmlns="http://www.w3.org/2000/svg">
<path d="M10.91 30.4855C10.5376 30.4855 10.1519 30.3924 9.80607 30.2062C9.04797 29.8072 8.58249 29.0092 8.58249 28.158V26.2695C4.56589 25.8572 1.9325 22.9045 1.9325 18.6751V10.6951C1.9325 6.11992 5.00479 3.04762 9.57999 3.04762H22.88C27.4552 3.04762 30.5275 6.11992 30.5275 10.6951V18.6751C30.5275 23.2503 27.4552 26.3226 22.88 26.3226H17.8659L12.2001 30.0999C11.8144 30.3526 11.3622 30.4855 10.91 30.4855ZM9.57999 5.02931C6.14859 5.02931 3.9275 7.25041 3.9275 10.6818V18.6619C3.9275 22.0933 6.14859 24.3144 9.57999 24.3144C10.1253 24.3144 10.5775 24.7666 10.5775 25.3119V28.1448C10.5775 28.3177 10.6839 28.3975 10.7504 28.4374C10.8169 28.4773 10.9499 28.5172 11.0962 28.4241L17.0147 24.4873C17.1743 24.3809 17.3738 24.3144 17.5733 24.3144H22.8933C26.3247 24.3144 28.5458 22.0933 28.5458 18.6619V10.6818C28.5458 7.25041 26.3247 5.02931 22.8933 5.02931H9.57999Z" fill="#9197B3"/>
<path d="M16.2297 16.9062C15.6844 16.9062 15.2322 16.454 15.2322 15.9087V15.6294C15.2322 14.0866 16.3627 13.3285 16.7883 13.0359C17.2804 12.7034 17.44 12.4773 17.44 12.1315C17.44 11.4665 16.8947 10.9211 16.2297 10.9211C15.5647 10.9211 15.0194 11.4665 15.0194 12.1315C15.0194 12.6768 14.5672 13.129 14.0219 13.129C13.4767 13.129 13.0245 12.6768 13.0245 12.1315C13.0245 10.3626 14.4608 8.92612 16.2297 8.92612C17.9986 8.92612 19.435 10.3626 19.435 12.1315C19.435 13.6477 18.3178 14.4058 17.9055 14.6851C17.3868 15.0309 17.2272 15.257 17.2272 15.6294V15.9087C17.2272 16.4673 16.775 16.9062 16.2297 16.9062Z" fill="#9197B3"/>
<path d="M16.23 20.2181C15.6714 20.2181 15.2325 19.7659 15.2325 19.2206C15.2325 18.6753 15.6847 18.2231 16.23 18.2231C16.7753 18.2231 17.2275 18.6753 17.2275 19.2206C17.2275 19.7659 16.7886 20.2181 16.23 20.2181Z" fill="#9197B3"/>
</svg>
