<svg width="50" height="50" viewBox="0 0 50 50" fill="none" xmlns="http://www.w3.org/2000/svg">
<path d="M25.2454 46.9406C23.8716 46.9406 22.4773 46.633 21.3906 45.9974L10.1134 39.4975C5.52046 36.4014 5.2334 35.9298 5.2334 31.0703V19.2189C5.2334 14.3594 5.49995 13.8878 10.0109 10.8327L21.3701 4.27138C23.5231 3.02062 26.9062 3.02062 29.0592 4.27138L40.3775 10.7917C44.9704 13.8878 45.2575 14.3594 45.2575 19.2189V31.0498C45.2575 35.9093 44.9909 36.3809 40.48 39.436L29.1207 45.9974C28.0135 46.633 26.6192 46.9406 25.2454 46.9406ZM25.2454 6.42432C24.3842 6.42432 23.5436 6.58835 22.9489 6.93692L11.6717 13.4572C8.32953 15.7127 8.32953 15.7127 8.32953 19.2189V31.0498C8.32953 34.556 8.32953 34.556 11.7537 36.873L22.9489 43.3318C24.1587 44.029 26.3526 44.029 27.5624 43.3318L38.8397 36.8115C42.1613 34.556 42.1613 34.556 42.1613 31.0498V19.2189C42.1613 15.7127 42.1613 15.7127 38.7371 13.3957L27.5419 6.93692C26.9473 6.58835 26.1066 6.42432 25.2454 6.42432Z" fill="black"/>
<path d="M25.2449 32.8341C21.0005 32.8341 17.5558 29.3894 17.5558 25.145C17.5558 20.9006 21.0005 17.4559 25.2449 17.4559C29.4893 17.4559 32.934 20.9006 32.934 25.145C32.934 29.3894 29.4893 32.8341 25.2449 32.8341ZM25.2449 20.5316C22.7024 20.5316 20.6315 22.6025 20.6315 25.145C20.6315 27.6875 22.7024 29.7584 25.2449 29.7584C27.7874 29.7584 29.8583 27.6875 29.8583 25.145C29.8583 22.6025 27.7874 20.5316 25.2449 20.5316Z" fill="black"/>
</svg>
