<svg width="33" height="33" viewBox="0 0 33 33" fill="none" xmlns="http://www.w3.org/2000/svg">
<path d="M20.2208 30.6972H12.2409C10.4853 30.6972 9.02226 30.5243 7.78536 30.1519C7.33316 30.0189 7.04056 29.58 7.06716 29.1145C7.39966 25.1378 11.4296 22.0122 16.2308 22.0122C21.0321 22.0122 25.0487 25.1245 25.3945 29.1145C25.4344 29.5933 25.1418 30.0189 24.6763 30.1519C23.4394 30.5243 21.9764 30.6972 20.2208 30.6972ZM9.20847 28.4495C10.0863 28.6224 11.0838 28.7022 12.2409 28.7022H20.2208C21.3779 28.7022 22.3754 28.6224 23.2532 28.4495C22.5483 25.8959 19.6356 24.0072 16.2308 24.0072C12.8261 24.0072 9.91336 25.8959 9.20847 28.4495Z" fill="white"/>
<path d="M20.22 3.10001H12.24C5.58999 3.10001 2.92999 5.76001 2.92999 12.41V20.39C2.92999 25.4174 4.44619 28.1705 8.06379 29.1946C8.35639 25.7366 11.9075 23.0101 16.23 23.0101C20.5525 23.0101 24.1036 25.7366 24.3962 29.1946C28.0138 28.1705 29.53 25.4174 29.53 20.39V12.41C29.53 5.76001 26.87 3.10001 20.22 3.10001ZM16.23 19.2861C13.5966 19.2861 11.4686 17.1448 11.4686 14.5114C11.4686 11.878 13.5966 9.75001 16.23 9.75001C18.8634 9.75001 20.9914 11.878 20.9914 14.5114C20.9914 17.1448 18.8634 19.2861 16.23 19.2861Z" stroke="white" stroke-width="1.995" stroke-linecap="round" stroke-linejoin="round"/>
<path d="M16.2299 20.2836C13.0512 20.2836 10.471 17.6901 10.471 14.5114C10.471 11.3327 13.0512 8.7525 16.2299 8.7525C19.4086 8.7525 21.9888 11.3327 21.9888 14.5114C21.9888 17.6901 19.4086 20.2836 16.2299 20.2836ZM16.2299 10.7475C14.1551 10.7475 12.466 12.4366 12.466 14.5114C12.466 16.5995 14.1551 18.2886 16.2299 18.2886C18.3047 18.2886 19.9938 16.5995 19.9938 14.5114C19.9938 12.4366 18.3047 10.7475 16.2299 10.7475Z" fill="white"/>
</svg>
