<svg width="33" height="33" viewBox="0 0 33 33" fill="none" xmlns="http://www.w3.org/2000/svg">
<path d="M14.5696 22.9843V25.6842C14.5696 27.9718 12.4416 29.8205 9.82148 29.8205C7.20138 29.8205 5.06006 27.9718 5.06006 25.6842V22.9843C5.06006 25.2719 7.18808 26.8945 9.82148 26.8945C12.4416 26.8945 14.5696 25.2586 14.5696 22.9843Z" stroke="#9197B3" stroke-width="1.995" stroke-linecap="round" stroke-linejoin="round"/>
<path d="M14.5676 19.3263C14.5676 19.9913 14.3814 20.6031 14.0622 21.1351C13.2775 22.4252 11.6681 23.2365 9.80613 23.2365C7.94413 23.2365 6.33482 22.4119 5.55012 21.1351C5.23092 20.6031 5.0448 19.9913 5.0448 19.3263C5.0448 18.1825 5.57677 17.1584 6.42797 16.4136C7.29247 15.6555 8.47612 15.2033 9.79282 15.2033C11.1095 15.2033 12.2933 15.6688 13.1578 16.4136C14.0356 17.1451 14.5676 18.1825 14.5676 19.3263Z" stroke="#9197B3" stroke-width="1.995" stroke-linecap="round" stroke-linejoin="round"/>
<path d="M14.5696 19.3263V22.9838C14.5696 25.2714 12.4416 26.894 9.82148 26.894C7.20138 26.894 5.06006 25.2581 5.06006 22.9838V19.3263C5.06006 17.0387 7.18808 15.19 9.82148 15.19C11.1382 15.19 12.3219 15.6555 13.1864 16.4003C14.0376 17.1451 14.5696 18.1825 14.5696 19.3263Z" stroke="#9197B3" stroke-width="1.995" stroke-linecap="round" stroke-linejoin="round"/>
<path d="M29.53 15.15V17.8899C29.53 18.6214 28.9448 19.2198 28.2 19.2464H25.5931C24.1567 19.2464 22.8401 18.1957 22.7204 16.7593C22.6406 15.9214 22.9597 15.1367 23.5183 14.5914C24.0104 14.086 24.6888 13.7934 25.4336 13.7934H28.2C28.9448 13.82 29.53 14.4185 29.53 15.15Z" stroke="#9197B3" stroke-width="1.995" stroke-linecap="round" stroke-linejoin="round"/>
<path d="M2.92999 14.525V11.865C2.92999 8.2474 5.11119 5.7204 8.50269 5.2948C8.84849 5.2416 9.20759 5.215 9.57999 5.215H21.55C21.8958 5.215 22.2283 5.22828 22.5475 5.28148C25.9789 5.68048 28.2 8.2208 28.2 11.865V13.7935H25.4336C24.6888 13.7935 24.0105 14.0861 23.5184 14.5915C22.9598 15.1368 22.6406 15.9215 22.7204 16.7594C22.8401 18.1958 24.1568 19.2465 25.5932 19.2465H28.2V21.175C28.2 25.165 25.54 27.825 21.55 27.825H18.225" stroke="#9197B3" stroke-width="1.995" stroke-linecap="round" stroke-linejoin="round"/>
</svg>
